<svg xmlns="http://www.w3.org/2000/svg" viewBox="0 0 24 24" fill="currentColor">
  <path d="M12 2C6.48 2 2 6.48 2 12s4.48 10 10 10 10-4.48 10-10S17.52 2 12 2zm-2 15l-5-5 1.41-1.41L10 14.17l7.59-7.59L19 8l-9 9z"/>
  <circle cx="12" cy="12" r="3" fill="white"/>
  <path d="M21 12c0-1.01-.17-1.98-.47-2.88l-2.45 2.45c.05.28.08.57.08.86 0 2.21-1.79 4-4 4-.29 0-.58-.03-.86-.08l-2.45 2.45c.9.3 1.87.47 2.88.47 4.97 0 9-4.03 9-9z" opacity=".3"/>
  <path d="M3.53 9.12l2.45 2.45c-.05.28-.08.57-.08.86 0 2.21 1.79 4 4 4 .29 0 .58-.03.86-.08l2.45 2.45c-.9.3-1.87.47-2.88.47-4.97 0-9-4.03-9-9 0-1.01.17-1.98.47-2.88z" opacity=".3"/>
</svg>
